<?xml version="1.0" standalone="no"?>
<!DOCTYPE svg PUBLIC "-//W3C//DTD SVG 20010904//EN"
 "http://www.w3.org/TR/2001/REC-SVG-20010904/DTD/svg10.dtd">
<svg version="1.0" xmlns="http://www.w3.org/2000/svg"
 width="666.000000pt" height="375.000000pt" viewBox="0 0 666.000000 375.000000"
 preserveAspectRatio="xMidYMid meet">

<g transform="translate(0.000000,375.000000) scale(0.100000,-0.100000)"
fill="#000000" stroke="none">
<path d="M5156 2277 c-17 -12 -21 -27 -46 -149 l-11 -58 -79 0 c-69 0 -82 -3
-100 -22 -11 -12 -20 -29 -20 -38 0 -31 23 -40 97 -40 69 0 73 -1 73 -22 -1
-30 -25 -142 -34 -156 -4 -8 -37 -12 -85 -12 -89 0 -104 -9 -99 -62 l3 -33 83
-3 c73 -2 82 -5 78 -20 -2 -9 -12 -52 -22 -94 -19 -85 -13 -108 31 -108 44 0
64 29 82 125 l18 90 104 3 104 3 -6 -23 c-4 -13 -12 -55 -19 -95 -13 -80 -5
-103 38 -103 43 0 52 16 79 143 l17 77 79 0 c73 0 80 2 95 25 10 16 14 34 10
50 -6 24 -10 25 -80 25 -40 0 -75 2 -78 5 -3 3 1 36 8 73 26 125 14 112 103
112 89 0 104 9 99 62 l-3 33 -72 3 c-72 3 -73 3 -73 30 1 15 7 56 15 92 16 76
8 100 -34 100 -38 0 -56 -24 -70 -90 -7 -30 -16 -72 -22 -92 l-10 -38 -99 0
c-55 0 -100 3 -100 8 0 4 7 46 16 95 13 69 14 90 4 102 -15 18 -50 19 -74 2z
m233 -319 c0 -7 -8 -49 -17 -93 l-17 -80 -103 -3 c-87 -2 -102 0 -102 13 0 14
25 127 36 163 2 8 32 12 104 12 74 0 100 -3 99 -12z"/>
<path d="M884 2016 c-45 -20 -74 -62 -74 -107 0 -42 20 -62 75 -74 84 -19 96
-26 93 -53 -4 -37 -49 -58 -97 -46 -27 7 -37 15 -39 32 -3 19 -9 23 -35 20
-41 -4 -47 -35 -14 -74 20 -23 33 -28 86 -32 72 -5 111 8 146 50 32 37 33 89
4 117 -12 11 -50 27 -85 37 -36 9 -67 21 -70 26 -10 16 6 45 32 56 38 18 63
14 88 -13 31 -33 76 -34 76 -2 0 13 -11 34 -25 47 -31 29 -114 37 -161 16z"/>
<path d="M1250 2016 c0 -8 -3 -21 -6 -30 -5 -12 1 -16 24 -16 29 0 42 14 42
46 0 9 -11 14 -30 14 -19 0 -30 -5 -30 -14z"/>
<path d="M3048 2017 c-93 -42 -156 -194 -114 -275 26 -51 56 -65 131 -60 70 4
100 24 138 88 l18 30 -31 0 c-23 0 -40 -9 -60 -30 -38 -41 -101 -43 -127 -4
-25 39 -5 126 39 171 28 29 39 33 73 31 30 -2 42 -8 50 -25 14 -32 75 -33 75
-2 0 71 -107 113 -192 76z"/>
<path d="M2367 1943 c-9 -43 -25 -117 -36 -165 l-19 -88 32 0 33 0 22 114 c12
62 28 137 36 165 l13 51 -32 0 -33 0 -16 -77z"/>
<path d="M3950 1965 c-11 -54 -12 -55 -33 -40 -76 53 -177 -29 -177 -143 0
-89 55 -126 130 -87 17 9 30 11 30 5 0 -5 13 -10 28 -10 28 0 28 0 60 153 18
83 32 158 32 165 0 7 -13 12 -29 12 -28 0 -30 -3 -41 -55z m-42 -87 c7 -7 12
-32 12 -55 0 -74 -64 -118 -105 -73 -48 53 43 178 93 128z"/>
<path d="M1534 1918 c-24 -19 -27 -20 -21 -5 6 16 2 18 -25 15 l-32 -3 -23
-105 c-28 -134 -28 -130 5 -130 28 0 29 3 45 78 19 85 39 122 66 122 38 0 44
-24 27 -97 -9 -37 -18 -76 -20 -85 -3 -14 3 -18 28 -18 32 0 32 0 49 82 9 45
25 90 34 100 20 22 52 23 60 2 5 -14 -12 -140 -24 -171 -4 -9 6 -13 29 -13
l34 0 17 88 c21 111 21 125 -1 145 -24 22 -66 22 -102 0 -26 -15 -29 -15 -45
0 -23 24 -67 21 -101 -5z"/>
<path d="M2056 1919 c-21 -17 -26 -18 -26 -5 0 11 -9 16 -29 16 -25 0 -30 -4
-35 -37 -9 -47 -55 -262 -62 -285 -4 -15 1 -18 30 -18 25 0 36 5 36 15 0 7 5
36 11 64 l10 50 21 -21 c16 -16 29 -19 60 -15 45 6 56 14 92 66 20 29 27 52
28 91 1 46 -2 56 -26 77 -34 29 -75 30 -110 2z m58 -45 c20 -19 20 -45 2 -89
-24 -56 -74 -72 -101 -32 -18 28 -7 78 27 114 25 27 50 29 72 7z"/>
<path d="M2640 1929 c-58 -23 -92 -78 -93 -152 -1 -43 3 -53 28 -74 25 -22 36
-25 84 -21 46 4 59 10 85 39 l30 34 -27 3 c-15 2 -37 -4 -49 -12 -41 -29 -88
-15 -88 26 0 15 12 18 88 20 l87 3 3 46 c3 41 0 49 -28 73 -33 28 -75 33 -120
15z m80 -54 c23 -28 4 -45 -50 -45 -55 0 -60 6 -30 38 24 25 62 29 80 7z"/>
<path d="M3432 1923 c-44 -21 -82 -88 -82 -142 0 -34 6 -49 30 -73 29 -28 35
-30 86 -26 61 5 106 37 130 95 49 113 -51 202 -164 146z m98 -52 c13 -26 13
-64 -1 -95 -13 -27 -60 -51 -84 -42 -21 8 -34 46 -28 79 12 62 89 102 113 58z"/>
<path d="M4213 1925 c-48 -21 -88 -88 -88 -148 0 -42 4 -52 29 -74 26 -22 37
-25 83 -21 42 4 60 11 83 33 17 16 30 32 30 37 0 13 -54 8 -74 -7 -38 -28 -86
-13 -86 27 0 16 10 18 84 18 90 0 96 4 96 55 0 79 -74 117 -157 80z m87 -55
c16 -30 4 -40 -51 -40 -53 0 -60 9 -29 40 26 26 66 26 80 0z"/>
<path d="M4614 1918 c-24 -19 -27 -20 -21 -5 6 16 2 18 -25 15 l-32 -3 -23
-105 c-28 -133 -28 -130 5 -130 27 0 29 4 46 75 18 78 47 115 87 115 11 0 19
3 19 8 0 4 3 17 6 30 8 30 -23 30 -62 0z"/>
<path d="M1225 1908 c-10 -46 -45 -212 -45 -216 0 -2 14 -2 32 0 l32 3 23 110
c12 61 22 113 23 118 0 4 -13 7 -30 7 -23 0 -31 -5 -35 -22z"/>
</g>
</svg>
